<?xml version="1.0" encoding="UTF-8"?>
<!DOCTYPE svg PUBLIC "-//W3C//DTD SVG 1.1//EN" "http://www.w3.org/Graphics/SVG/1.1/DTD/svg11.dtd">
<!-- Creator: CorelDRAW 2021 (64-Bit) -->
<svg xmlns="http://www.w3.org/2000/svg" xml:space="preserve" width="297mm" height="210mm" version="1.1" style="shape-rendering:geometricPrecision; text-rendering:geometricPrecision; image-rendering:optimizeQuality; fill-rule:evenodd; clip-rule:evenodd"
viewBox="0 0 29700 21000"
 xmlns:xlink="http://www.w3.org/1999/xlink"
 xmlns:xodm="http://www.corel.com/coreldraw/odm/2003">
 <defs>
  <style type="text/css">
   <![CDATA[
    .fil2 {fill:#020101}
    .fil19 {fill:#050402}
    .fil16 {fill:#320A04}
    .fil12 {fill:#372713}
    .fil7 {fill:#433B01}
    .fil21 {fill:#443B07}
    .fil17 {fill:#4A2B05}
    .fil20 {fill:#4B4301}
    .fil23 {fill:#4C726A}
    .fil6 {fill:#575328}
    .fil13 {fill:#640101}
    .fil14 {fill:#6A956A}
    .fil24 {fill:#7C711A}
    .fil8 {fill:#94FEFA}
    .fil11 {fill:#B80601}
    .fil5 {fill:#C9B737}
    .fil1 {fill:#C9B836}
    .fil3 {fill:#DA0000}
    .fil22 {fill:#E6D95A}
    .fil0 {fill:#F1E048}
    .fil4 {fill:#F2E04B}
    .fil18 {fill:#FAFAFA}
    .fil9 {fill:#FDFDFD}
    .fil10 {fill:#FE7575}
    .fil15 {fill:white}
   ]]>
  </style>
 </defs>
 <g id="Capa_x0020_1">
  <metadata id="CorelCorpID_0Corel-Layer"/>
  <g id="_2740775478944">
   <path class="fil0" d="M11349.81 10112.01l122.72 101.33c-26.83,219.34 -311.71,544.41 -532.38,583.15 -291.3,51.15 -577.73,-229.71 -663.97,-477.17 -168.92,-156 -74.13,-326.04 53.11,-481.15 93.76,-114.3 266.16,-314.99 401.75,-369.32 82.68,43.28 582.44,565.16 618.77,643.16zm-833.94 -2093.77c90.42,-133 374.2,-109.23 483.07,3.51 -44.07,68.87 -136,128.31 -214.97,167.04 -94.49,-32.88 -215.16,-93.53 -268.1,-170.55zm-2308.73 -186.48c115.66,-65.93 781.16,-105.74 874.87,-26.46 -80.74,44.58 -327.88,18.07 -441.46,25.13 -118.75,7.39 -328.47,59.56 -433.41,1.33zm6914.38 -583.96c79.24,139.72 25.85,342.78 29.73,501.37 231.89,75.38 366.48,-53.07 629.17,139.96 175.56,129.01 284.14,291.27 241.95,525.67 -145.03,157.76 -186.45,59.35 -402.17,148.2 -138.06,56.86 -341.03,39.64 -491.41,23.03 -471.48,-52.08 -509.17,-156.72 -732.05,-351.5 -153.56,-13.25 -357.64,-73.7 -531.5,-95.34 -126.9,-15.8 -453.58,-19.14 -526.57,-95.73 107.65,-56.1 881.27,89.26 1041.93,134.26l-26.55 -82.86c-447.8,-99.52 -814.66,-98.83 -1264.19,-134.64 75.49,-156 34.25,60.71 73.87,-128.32 -133.59,-134.33 -119.56,-557.08 -71.41,-736.51 72.05,-268.5 245.04,-444.94 293.56,-614.49l-270.04 -106.31c74.07,-41.78 870.37,253.75 1046.55,302.61 190.12,52.73 977.47,225.45 1078.77,294.12l-148.09 13.79 28.45 262.69zm-5942.83 -841.31c50.06,285.38 154.12,940.26 -7.31,1187.25 6.25,113.19 -15.77,48.13 41.41,146.13 -407.06,-12.46 -721.7,-28 -1132.61,9.96 -147.42,170.45 61.28,379.24 -418.74,414.24 -172.22,12.56 -539.88,182.48 -668.33,-5.54 -68.36,-100.05 8.44,-26.67 -97.68,-116.21 -47.14,-39.77 -74.81,-65.84 -86.33,-132.3 -19.6,-113.08 38,-217.98 124.46,-276.83 352.93,-240.22 540.31,-93.04 600.63,-216.53l7.74 -514.78 22.36 -103.32c-85.82,-78.54 -60.14,-17.74 -36.51,-86.39l144.71 -20.94 1408.23 -362.18c58.61,-49.16 52.63,-44.23 136.11,-67.01 15.99,-4.36 72.2,-17.36 85.44,-17.12 70.56,1.27 30.22,6.02 55.93,27.94l-180.1 64.54 0.59 69.09zm-3105.08 2518.88c202.9,-264.25 656.45,-348.03 959.56,-203.05 590.85,282.61 682.11,1224.14 318.36,1867.7 -237.64,420.46 -390.71,458.39 -574.09,665.06 112.69,215.06 1176.39,1080.55 1441.61,1199.86 202.7,194.81 1419.25,409.78 1744.63,455.73 1271.71,179.57 2652.51,135.57 3848.07,-384.24 255.65,-111.15 474.84,-224.71 710.69,-373.61 231.46,-146.13 414.36,-324.47 623.6,-459.12l-169.9 -50.54c-279.05,-115.53 -821.59,-389.2 -870.43,-697.4 -252.17,-207.6 -92.25,-817.47 43.09,-1073.02 150.71,-284.57 380.23,-524.91 644.8,-703.99 711.17,-481.38 1330.52,42.05 1513,752.29 341.37,-123.82 460.23,-2581.34 466.42,-2988.99 9.98,-657.1 -158.75,-2398.61 -417.02,-2964.89l5439.12 -224.44c137.08,-67.49 578.6,-688.35 703.24,-867.8 130.45,-187.83 500.32,-851.32 591.13,-944.48l-35.86 -91.5c-342.98,-7.1 -725.3,-64.45 -1076.57,-85.58 -374.93,-22.55 -762.3,-28.58 -1137.97,-21.67 -1550.24,28.55 -3503.81,306.99 -4971.77,840.88 -234.86,85.42 -653.32,290.68 -853.38,341.3 39.05,-117.37 43.58,-52.91 131.42,-134.81 -661.75,-628.62 -2501.66,-826.09 -3380.18,-806.88 -1124.72,24.59 -2366.43,310.96 -3345.88,877.19 -1076.78,622.49 -1574.19,1189.5 -1796.5,2430.9 -164.76,919.99 -93.53,2420.97 -296.99,2879.4 -92.2,207.74 -278.57,543.73 -252.2,765.7z"/>
   <path class="fil0" d="M4315.17 15924.47c37.65,147.07 -67.84,275.77 17.14,503.85 367.81,987.14 2166.74,889.83 2891.81,538.43 149.11,-62 614.1,-633.73 750.54,-802.58 242.9,-300.59 418.18,-628.6 616.33,-912.99 -66.17,-94.25 -51.74,-29.8 -158.9,-90.79 46.13,-146.17 163.83,-180.57 124.51,-404.47l-228.28 -30.97 142.83 -340.81 -75.77 -43.75c-93.58,16.49 -267.6,19.07 -332.94,-36.98l165.75 -29.93c64.71,-115.92 93.33,-164.83 62.04,-300.09 -153.68,-39.92 -307.08,11.31 -452.97,-17.41 28.35,-95.45 54.67,-24.33 15.11,-174.79 -194.09,-27.76 -298.17,101.35 -707.03,228.87 -493.53,153.94 -1269.19,347.86 -1693.41,610.1 -95.97,59.33 -167.14,166.57 -241.04,186.91 43.46,-345.87 1220.79,-603.77 1501.32,-730.03 282.03,-327.67 675.7,-867.35 1009.02,-1091.32l54.23 27.72c-20.25,285.5 -124.39,472.57 -172.04,731.25 287.24,-53.75 244.88,-68.27 347.93,158.08 146.92,-5.81 283.75,-36.16 387.09,50.78 36.04,96.49 39.85,168.65 -21.65,255.69 20.21,127.68 52.88,73.03 232.02,136.49l-106.54 313.23c296.99,92.44 194.5,223.76 96.11,458.85l153.55 72.36c-112.94,434.2 -917.88,1319.91 -1249.56,1684.26 -317.27,348.52 -826.96,753.06 -1272.93,928.48 -211.14,83.06 -168.11,229.36 -305.09,428.42l8610.92 0c-80.63,-105.54 -85.09,-30.21 -219.23,-104.26 -699.31,-87.54 -1321.86,-492.79 -1761.73,-1024.37 -729.07,-881.08 -499.68,-1418.28 -541.44,-1528.82 -50.92,-134.82 -286.38,-149.26 -281.43,-412.14 97.95,-153.94 175.58,-97.95 275.49,-190.29l-102.64 -66.52c-344.14,48.93 -554.05,277.95 -1297.84,-62.05 -899.07,-410.98 -1949.93,-1515.3 -2421.86,-2347.99 -92.99,-97.93 -450.88,-338.07 -585.65,-440.91 -157.1,-119.88 -493.17,168.76 -640.75,255.51 -1179.87,693.55 -2616.78,2313.77 -2583.02,3614.98z"/>
   <path class="fil1" d="M16306.6 9921.04c92.52,371.78 70.24,693.32 -142.46,1015.45 -154.04,233.28 -472.75,508.25 -749.19,582.29 -57.69,87.92 -316.91,130.42 -438.81,124.38l169.9 50.54c-209.24,134.65 -392.14,312.99 -623.6,459.12 -235.85,148.9 -455.04,262.46 -710.69,373.61 -1195.56,519.81 -2576.36,563.81 -3848.07,384.24 -325.38,-45.95 -1541.93,-260.92 -1744.63,-455.73 32.65,139.21 18.84,34.67 -28.36,67.98l-66.1 -28.03c471.93,832.69 1522.79,1937.01 2421.86,2347.99 743.79,340 953.7,110.98 1297.84,62.05 -74.01,-90.56 -116.39,-78.06 -116.39,-223.24 77.57,-124.12 198.23,-135.85 260.24,-234.43 -137.06,-207.8 -267.59,-239.27 86.09,-432.21 -80.52,-107.87 -137.09,-105.81 -86.22,-241.73 140.61,-60.86 121.39,5.62 256.75,-36.87 325.97,-102.31 378.88,-92.41 809.2,1.71 305.15,66.75 678.93,248.92 931.91,293.02 173.47,-221.16 1467.85,-1381.03 1712.07,-1405.97 -53.36,134.95 -730.95,525.83 -806.08,674.8 189.67,-82.7 652.14,177.25 835.91,279.49 827.22,460.22 1088.96,1452.9 524.97,2313.82 -288.11,439.8 -709.68,859.41 -1123.39,1179.56 -235.68,182.37 -1201.53,822.33 -1453.07,826.44 187.98,193.61 948.69,197.24 1219.89,133.63 1408.71,-330.41 1968.22,-2071.72 2166.59,-2200.72 273.11,46.31 97.84,-138.37 166.86,-394.39 -10.33,-380.5 -138.52,-948.94 -196.45,-1346.66 -66.85,-458.95 -108.41,-906.22 -163.98,-1363.87 -103.28,-850.5 -47.89,-1990.47 124.87,-2831.51 419.74,-2043.51 590.25,-3309.21 -54.7,-5350.04 1462.27,23.46 2894.26,-9.3 4327.32,-321.68 156.33,-83.94 463.9,-338.09 528.44,-481.36l-5439.12 224.44c258.27,566.28 427,2307.79 417.02,2964.89 -6.19,407.65 -125.05,2865.17 -466.42,2988.99z"/>
   <path class="fil0" d="M18749.98 17799.11l-82.93 64.35 204.08 155.35c314.04,-750.99 883.96,-2664.45 933.09,-3444.26 1014.08,-64.18 4568.93,53.02 5453.02,352.33l-1.62 -2914.12c0,-151.33 -8.42,-328.74 2.23,-476.92 15.85,-220.52 -29.09,-325.64 22.27,-416.36 -559.51,99.11 -1260.12,103.66 -1855.32,194.95 -1171.17,179.63 -3175.52,478.33 -4268.09,897.18 -190.88,73.18 -571.56,255.4 -731.7,296.83 128.17,1453.94 456.64,3873.64 324.97,5290.67z"/>
   <path class="fil0" d="M13676.28 17899.32c251.54,-4.11 1217.39,-644.07 1453.07,-826.44 413.71,-320.15 835.28,-739.76 1123.39,-1179.56 563.99,-860.92 302.25,-1853.6 -524.97,-2313.82 -183.77,-102.24 -646.24,-362.19 -835.91,-279.49 -138.86,36.23 -781.59,633.48 -844.13,768.4 172.23,71.05 663.88,256 738.37,414.94 -127.08,-32.25 -472.71,-236.39 -634.19,-307.22 -207.61,-91.07 -432.51,-182.01 -647.28,-251.75 -279.1,-90.64 -850.39,-260.26 -1144.04,-173.71 -176.75,52.09 -151.62,130.81 -162.9,283.79 -111.64,30.07 -190.67,68.63 -277.46,147.45 2.67,207.3 109.41,135.02 160.99,291.82 -266.06,231.79 -482.92,170.1 -53.98,492.55l168.49 -101.72c-45.88,195.46 -317.51,158.48 -459.87,297.18 -17.48,190.77 204.14,310.78 339.85,423.39 -41.83,109.11 -59.79,-25.16 -82.25,182.66 -91.35,845.14 1160.13,2081.97 1682.82,2131.53z"/>
   <path class="fil1" d="M18749.98 17799.11c-284.9,73.56 -834.82,-156.86 -1124.54,-234.1 -6.51,157.62 73.55,402.16 12.06,520.29 112.97,70.25 353.86,40.31 582.29,40.31 349.91,0 1992.65,-37.82 2090.5,26.47l52.92 5.72 -56.04 -32.11c207.14,-441.04 662.23,-1724.34 532.49,-2161.6l4471.95 361.84 0 -1342.24 -54.37 -56.81c-884.09,-299.31 -4438.94,-416.51 -5453.02,-352.33 -49.13,779.81 -619.05,2693.27 -933.09,3444.26l-204.08 -155.35 82.93 -64.35z"/>
   <path class="fil2" d="M23089.49 1930.44c-90.81,93.16 -460.68,756.65 -591.13,944.48 -124.64,179.45 -566.16,800.31 -703.24,867.8 -64.54,143.27 -372.11,397.42 -528.44,481.36 67.74,51.87 44.25,14.59 181.48,8.98 195.85,65.01 1738.9,-393.32 2052.7,-514.24 557.99,-215.02 1314.85,-481.36 1810.75,-808.99l0 -635.09c-250.45,-115.92 -1854.94,-504.42 -2064.04,-423.52l-106 -12.57 -52.08 91.79z"/>
   <path class="fil3" d="M14105.71 10945.76c48.84,308.2 591.38,581.87 870.43,697.4 121.9,6.04 381.12,-36.46 438.81,-124.38 52.79,-156.74 235.7,-118.79 543.74,-443.57 705.65,-743.98 111.34,-1726.78 -242.86,-1930.56 -645.73,-371.49 -1421.93,441.87 -1610.74,997.91 -137.38,404.6 -11.16,458.68 0.62,803.2z"/>
   <path class="fil4" d="M6285.43 1656.93c85.74,34.67 87.48,136.33 128.24,255.31 118.78,346.71 686.21,1545.54 837.7,1746.1 274.7,-246.44 494.23,-446.43 826.83,-677.43 161.88,-112.43 963.64,-511.99 992.15,-545.44 84,-216.74 -47.75,-605.18 -44.33,-848.74 -472.49,0 -944.99,0 -1417.49,0l-1103.57 0c-106.51,13.4 -186.92,35.39 -219.53,70.2z"/>
   <path class="fil5" d="M17062.76 15832.23c-49.8,379.76 -717.32,1282.7 -996.65,1568.5 -545.19,557.83 -1015.67,750.43 -1810.07,726.34 134.14,74.05 138.6,-1.28 219.23,104.26l45.68 0 2961.8 0 2113.07 -26.46c123.44,0 247.09,-0.69 370.51,0.09 139.92,0.89 278.02,35.14 343.96,-52.88 -97.85,-64.29 -1740.59,-26.47 -2090.5,-26.47 -228.43,0 -469.32,29.94 -582.29,-40.31 -110.69,-121.88 -153.98,-1109.73 -189.16,-1360.16 -24.66,-175.53 -172.79,-1205.8 -218.72,-1287.3 -69.02,256.02 106.25,440.7 -166.86,394.39z"/>
   <path class="fil6" d="M6285.43 1656.93c5.44,306.9 717.67,1754.51 926.17,2073.22 -271.11,378.71 -339.41,396.07 -499.71,876.32 -112.08,335.77 -187.6,806.61 -216.29,1159.73 -54.24,667.54 -36.69,1936.93 -282.13,2496.38 -351.2,800.52 -456.76,1358.67 -86.61,2188.71 107.75,241.63 377.76,625.08 562.05,813.98 125.02,128.16 187.84,233.8 337.44,350.57 80.65,62.96 317.12,270.22 370.48,344 -1204.38,596.7 -2171.26,1465.57 -2778.51,2672.66 -634.9,1262.04 -659.96,3621.91 1323.1,3254.82 -12.26,141.2 -130.87,245.5 -77.07,344.01 136.98,-199.06 93.95,-345.36 305.09,-428.42 445.97,-175.42 955.66,-579.96 1272.93,-928.48 331.68,-364.35 1136.62,-1250.06 1249.56,-1684.26l-153.55 -72.36c98.39,-235.09 200.88,-366.41 -96.11,-458.85l106.54 -313.23c-179.14,-63.46 -211.81,-8.81 -232.02,-136.49 -45.36,65.14 -50.26,-59.88 -33.46,81.86 83.05,47.54 75.51,39.08 178.38,42.33l-66.33 6.96 75.77 43.75 -142.83 340.81 228.28 30.97c39.32,223.9 -78.38,258.3 -124.51,404.47 107.16,60.99 92.73,-3.46 158.9,90.79 -198.15,284.39 -373.43,612.4 -616.33,912.99 -136.44,168.85 -601.43,740.58 -750.54,802.58 -276.3,400.64 -1271.28,1040.94 -1976.56,865.04 -1028.47,-256.5 -1030.6,-1778.61 -932.39,-1907.32 -33.76,-1301.21 1403.15,-2921.43 2583.02,-3614.98 147.58,-86.75 483.65,-375.39 640.75,-255.51 134.77,102.84 492.66,342.98 585.65,440.91l66.1 28.03c47.2,-33.31 61.01,71.23 28.36,-67.98 -265.22,-119.31 -1328.92,-984.8 -1441.61,-1199.86 -73.84,-35.36 -79.75,-28.57 -101.98,-115.43 -160.36,-40.12 -694.22,-1019.06 -647.72,-1227.13 -61.87,-78.23 -30.41,-5.07 -58.54,-133.41 -8.66,-39.54 -10.36,-80.05 -13.37,-120.45 -7.25,-97.44 -8.67,-195.59 -3.72,-293.17 6.99,-137.74 15.25,-354.18 121.5,-440.12 -26.37,-221.97 160,-557.96 252.2,-765.7 203.46,-458.43 132.23,-1959.41 296.99,-2879.4 222.31,-1241.4 719.72,-1808.41 1796.5,-2430.9 979.45,-566.23 2221.16,-852.6 3345.88,-877.19 878.52,-19.21 2718.43,178.26 3380.18,806.88 -87.84,81.9 -92.37,17.44 -131.42,134.81 200.06,-50.62 618.52,-255.88 853.38,-341.3 1467.96,-533.89 3421.53,-812.33 4971.77,-840.88 375.67,-6.91 763.04,-0.88 1137.97,21.67 351.27,21.13 733.59,78.48 1076.57,85.58l35.86 91.5 52.08 -91.79 106 12.57c-522.61,-284.58 -3207.2,-159.84 -3905,-94.34 -1151.35,108.07 -2345.78,377.99 -3444.39,736.6 -151.99,49.61 -612.07,283.15 -733.17,219.23 -246.61,-130.2 -406.62,-256.41 -690.63,-370.78 -1411.61,-568.45 -3055.94,-538.44 -4516.13,-178.43 -258.13,63.64 -578.9,208.32 -814.93,243.55 42.3,-91.76 -17.06,-784.48 -117.3,-820.32 -3.42,243.56 128.33,632 44.33,848.74 -28.51,33.45 -830.27,433.01 -992.15,545.44 -332.6,231 -552.13,430.99 -826.83,677.43 -151.49,-200.56 -718.92,-1399.39 -837.7,-1746.1 -40.76,-118.98 -42.5,-220.64 -128.24,-255.31z"/>
   <path class="fil3" d="M6027.74 9912.52c-46.5,208.07 487.36,1187.01 647.72,1227.13 130.92,43.51 158.14,-12.35 262.19,-115.82 1156.22,-1149.76 341.36,-2715.16 -583.5,-2219.13 -492.53,264.16 -313.27,486.19 -326.41,1107.82z"/>
   <path class="fil6" d="M17229.62 15437.84c45.93,81.5 194.06,1111.77 218.72,1287.3 35.18,250.43 78.47,1238.28 189.16,1360.16 61.49,-118.13 -18.57,-362.67 -12.06,-520.29 289.72,77.24 839.64,307.66 1124.54,234.1 131.67,-1417.03 -196.8,-3836.73 -324.97,-5290.67 160.14,-41.43 540.82,-223.65 731.7,-296.83 1092.57,-418.85 3096.92,-717.55 4268.09,-897.18 595.2,-91.29 1295.81,-95.84 1855.32,-194.95l31.49 -8.11c-135.4,-135.38 -1578.71,92.97 -1848.38,137.96 -605.48,101.01 -1223.92,182.4 -1833.95,283 -531.51,87.65 -2954.48,630.94 -3255.92,950.47 -12.72,49.03 225.64,2229.22 242.09,2521.44 51.92,922.73 80.66,1822.24 80.66,2750.77 -198.82,0.37 -950.72,-193.49 -1089.67,-286.35l-467.51 -3157.79c-144.21,-887.74 -362.44,-2437.09 -203.92,-3291.82 44.42,-239.52 25.93,-533.22 78.83,-820.87 261.79,-1423.51 562.06,-2566.41 366.06,-4066.87 -72.74,-556.81 -217.26,-976.62 -324.44,-1501.45 1239.68,0 2174.57,-20.07 3378.97,-193.4l887 -143.4c139.97,-31.72 51.28,37.63 126.73,-60 -137.23,5.61 -113.74,42.89 -181.48,-8.98 -1433.06,312.38 -2865.05,345.14 -4327.32,321.68 644.95,2040.83 474.44,3306.53 54.7,5350.04 -172.76,841.04 -228.15,1981.01 -124.87,2831.51 55.57,457.65 97.13,904.92 163.98,1363.87 57.93,397.72 186.12,966.16 196.45,1346.66z"/>
   <path class="fil2" d="M14751.11 7123.42c101.22,83.56 134.89,144.19 105.97,283.11 -311.66,206.86 -463.41,-173.11 -105.97,-283.11zm-1344.86 -32.59c-70.98,-230.06 203.23,-491.3 389.08,-476.11 64.93,5.3 254.21,73.69 334.39,94.01 165.92,42.05 208.54,34.82 220.65,222.24 50,773.72 -843.29,486.64 -944.12,159.86zm-242.52 741.07c68.55,74.1 28.04,-59.89 57.5,83.78l174.39 13.68 15.06 -355.93c98.39,19.44 386.98,160.57 575.19,208.43 12.83,-171.51 6.27,-50 55.2,-108.74l70.98 -71.14c134.39,32.75 79.17,29.87 166.24,97.61l71.12 68.6 246.18 -81.2c78.98,145.84 -30.35,94.98 87.79,145.87 119.75,-17.25 335.11,-21.37 416.43,-81.28 71.61,-168.1 30.08,-327.22 21.71,-503.78l-28.45 -262.69 148.09 -13.79c-101.3,-68.67 -888.65,-241.39 -1078.77,-294.12 -176.18,-48.86 -972.48,-344.39 -1046.55,-302.61l270.04 106.31c-48.52,169.55 -221.51,345.99 -293.56,614.49 -48.15,179.43 -62.18,602.18 71.41,736.51z"/>
   <path class="fil1" d="M7224.12 16966.75c-725.07,351.4 -2524,448.71 -2891.81,-538.43 -84.98,-228.08 20.51,-356.78 -17.14,-503.85 -98.21,128.71 -96.08,1650.82 932.39,1907.32 705.28,175.9 1700.26,-464.4 1976.56,-865.04z"/>
   <path class="fil2" d="M9002.4 6984.98c-181.71,330.95 -1044.41,380.92 -681.87,-240.28 362.42,-621.01 826.82,-23.71 681.87,240.28zm-1264.84 81.09c-66.84,-186.58 110.71,-314.29 286.38,-285.23 8.46,146.07 -134.6,369.24 -286.38,285.23zm-65.07 -374.84l-113.35 54.78c61.49,58.07 37.54,105.38 -17.21,155.87l-7.74 514.78 26.45 44.77c59.06,6.22 -23.91,51.79 91.6,-58.68 63.01,-60.26 43.93,-64.67 115.06,-108.91 62.47,40.03 98.05,91.34 138.34,139.15l48.82 -40.07c90.37,-52.89 135.9,-70.98 241.02,-44.08l26.07 129.28c75.64,183.2 485.96,-35.4 601.42,-112.19 64.52,80.93 91.61,203.33 69.44,307.65l199.35 21.47c39.96,-44.02 12.86,-18.89 30.5,-41.57 45.61,-58.61 -9.24,1.89 49.12,-59.74 161.43,-246.99 57.37,-901.87 7.31,-1187.25 -99.65,-99.47 4.08,-41.11 -97.97,-77.44l-1408.23 362.18z"/>
   <path class="fil7" d="M12161.09 13813.99l-15.93 143.94c-91.44,-39.16 -102.86,-38.02 -112.84,-149.04l128.77 5.1zm-316.8 1090.94l102.64 66.52c-99.91,92.34 -177.54,36.35 -275.49,190.29 -4.95,262.88 230.51,277.32 281.43,412.14 41.76,110.54 -187.63,647.74 541.44,1528.82 439.87,531.58 1062.42,936.83 1761.73,1024.37 794.4,24.09 1264.88,-168.51 1810.07,-726.34 279.33,-285.8 946.85,-1188.74 996.65,-1568.5 -198.37,129 -757.88,1870.31 -2166.59,2200.72 -271.2,63.61 -1031.91,59.98 -1219.89,-133.63 -522.69,-49.56 -1774.17,-1286.39 -1682.82,-2131.53 22.46,-207.82 40.42,-73.55 82.25,-182.66 -135.71,-112.61 -357.33,-232.62 -339.85,-423.39 142.36,-138.7 413.99,-101.72 459.87,-297.18l-168.49 101.72c-428.94,-322.45 -212.08,-260.76 53.98,-492.55 -51.58,-156.8 -158.32,-84.52 -160.99,-291.82 86.79,-78.82 165.82,-117.38 277.46,-147.45 11.28,-152.98 -13.85,-231.7 162.9,-283.79 293.65,-86.55 864.94,83.07 1144.04,173.71 214.77,69.74 439.67,160.68 647.28,251.75 161.48,70.83 507.11,274.97 634.19,307.22 -74.49,-158.94 -566.14,-343.89 -738.37,-414.94 62.54,-134.92 705.27,-732.17 844.13,-768.4 75.13,-148.97 752.72,-539.85 806.08,-674.8 -244.22,24.94 -1538.6,1184.81 -1712.07,1405.97 -252.98,-44.1 -626.76,-226.27 -931.91,-293.02 -430.32,-94.12 -483.23,-104.02 -809.2,-1.71 -135.36,42.49 -116.14,-23.99 -256.75,36.87 -50.87,135.92 5.7,133.86 86.22,241.73 -353.68,192.94 -223.15,224.41 -86.09,432.21 -62.01,98.58 -182.67,110.31 -260.24,234.43 0,145.18 42.38,132.68 116.39,223.24z"/>
   <path class="fil8" d="M14552.24 7941.14l-107.33 107.5c-16.57,317.55 338.45,427.61 600.89,468.49 531.28,82.76 561.76,-44.19 713.4,-59.06 113.51,-11.13 108.19,15.83 204.14,-48.56 34.03,-48.56 45.39,-283.8 -196.15,-452.43 -88.35,-61.69 -96.11,-105.97 -273.02,-126.7 -549.67,-64.4 -634.44,38.28 -941.93,110.76z"/>
   <path class="fil9" d="M13406.25 7090.83c100.83,326.78 994.12,613.86 944.12,-159.86 -12.11,-187.42 -54.73,-180.19 -220.65,-222.24 -80.18,-20.32 -269.46,-88.71 -334.39,-94.01 -185.85,-15.19 -460.06,246.05 -389.08,476.11z"/>
   <path class="fil8" d="M7857.34 7614.54l6.03 10.73c-180.28,-31.62 -187.55,-24.14 -311.08,-80.1 -106.68,-48.33 -196.18,-26.29 -302.55,8.67 -187.28,61.56 -390.62,139.07 -387,361.38 50.36,82.03 59.27,62.75 119.17,119.78 83.22,79.24 50.18,223.26 454.8,125.85 51.88,-12.49 96.96,-37.63 133.21,-45.74 90.46,-20.23 360.88,37.57 403.7,-207.73 28.56,-163.68 -45.21,-185.84 -116.28,-292.84z"/>
   <path class="fil10" d="M10334.38 10276.68c10.72,207.3 327.55,481.97 555.5,466.8 234.19,-15.58 447.65,-301.83 518.95,-503.67l-96.48 -112.84c-234.2,-43.45 -232.11,-147.31 -563.53,-54.14 -174.22,48.97 -284.73,154.4 -414.44,203.85z"/>
   <path class="fil6" d="M20363.21 18157.8c204.09,-453.92 232.3,-461.75 370.67,-984.76 78.39,-296.29 211.35,-825.45 211.5,-1138.06l3282.76 289.61c188.74,14.8 393.14,27.55 581.52,27.11 149.58,-0.35 412.92,81.71 501.95,-25.77l-4471.95 -361.84c129.74,437.26 -325.35,1720.56 -532.49,2161.6l56.04 32.11z"/>
   <path class="fil9" d="M9002.4 6984.98c144.95,-263.99 -319.45,-861.29 -681.87,-240.28 -362.54,621.2 500.16,571.23 681.87,240.28z"/>
   <path class="fil11" d="M14105.71 10945.76c-11.78,-344.52 -138,-398.6 -0.62,-803.2 188.81,-556.04 965.01,-1369.4 1610.74,-997.91 354.2,203.78 948.51,1186.58 242.86,1930.56 -308.04,324.78 -490.95,286.83 -543.74,443.57 276.44,-74.04 595.15,-349.01 749.19,-582.29 212.7,-322.13 234.98,-643.67 142.46,-1015.45 -182.48,-710.24 -801.83,-1233.67 -1513,-752.29 -264.57,179.08 -494.09,419.42 -644.8,703.99 -135.34,255.55 -295.26,865.42 -43.09,1073.02z"/>
   <path class="fil5" d="M6712.21 14077.04c136.89,-37.42 711.41,-189.92 786.3,-268.95 85.95,-90.68 208.63,-674.5 222.72,-822.37 -333.32,223.97 -726.99,763.65 -1009.02,1091.32z"/>
   <path class="fil12" d="M13163.73 7831.9c-39.62,189.03 1.62,-27.68 -73.87,128.32 449.53,35.81 816.39,35.12 1264.19,134.64l38.51 9.86c12.54,-126.41 54.3,-152.27 165.12,-214.72l125.7 -57.14c-118.14,-50.89 -8.81,-0.03 -87.79,-145.87l-246.18 81.2 -71.12 -68.6c9.16,133.51 22.47,143.88 -80.41,233.23 -140.64,-26.27 -158,-126.43 -156.81,-259.7 -48.93,58.74 -42.37,-62.77 -55.2,108.74 -188.21,-47.86 -476.8,-188.99 -575.19,-208.43l-15.06 355.93 -174.39 -13.68c-29.46,-143.67 11.05,-9.68 -57.5,-83.78z"/>
   <path class="fil11" d="M6073.61 8925.37c-106.25,85.94 -114.51,302.38 -121.5,440.12 -4.95,97.58 -3.53,195.73 3.72,293.17 3.01,40.4 4.71,80.91 13.37,120.45 28.13,128.34 -3.33,55.18 58.54,133.41 13.14,-621.63 -166.12,-843.66 326.41,-1107.82 924.86,-496.03 1739.72,1069.37 583.5,2219.13 -104.05,103.47 -131.27,159.33 -262.19,115.82 22.23,86.86 28.14,80.07 101.98,115.43 183.38,-206.67 336.45,-244.6 574.09,-665.06 363.75,-643.56 272.49,-1585.09 -318.36,-1867.7 -303.11,-144.98 -756.66,-61.2 -959.56,203.05z"/>
   <path class="fil7" d="M6712.21 14077.04c-280.53,126.26 -1457.86,384.16 -1501.32,730.03 73.9,-20.34 145.07,-127.58 241.04,-186.91 424.22,-262.24 1199.88,-456.16 1693.41,-610.1 408.86,-127.52 512.94,-256.63 707.03,-228.87 39.56,150.46 13.24,79.34 -15.11,174.79 145.89,28.72 299.29,-22.51 452.97,17.41 31.29,135.26 2.67,184.17 -62.04,300.09l-165.75 29.93c65.34,56.05 239.36,53.47 332.94,36.98l66.33 -6.96c-102.87,-3.25 -95.33,5.21 -178.38,-42.33 -16.8,-141.74 -11.9,-16.72 33.46,-81.86 61.5,-87.04 57.69,-159.2 21.65,-255.69 -103.34,-86.94 -240.17,-56.59 -387.09,-50.78 -103.05,-226.35 -60.69,-211.83 -347.93,-158.08 47.65,-258.68 151.79,-445.75 172.04,-731.25l-54.23 -27.72c-14.09,147.87 -136.77,731.69 -222.72,822.37 -74.89,79.03 -649.41,231.53 -786.3,268.95z"/>
   <path class="fil13" d="M10298.48 10226.11c237.91,-75.11 221.01,-250.75 829.72,-251.35 -33.43,-82.71 -317.76,-360.16 -397.16,-417.67 -109.42,42.22 -225.74,182.66 -305.65,271.04 -133.09,147.17 -213.02,202.13 -126.91,397.98z"/>
   <path class="fil12" d="M8221.55 7478.12l-180.56 141.03c-117.58,89.5 -43.54,24.6 -64.87,87.75 51.42,49.84 22.37,41.23 104.06,42.93 410.91,-37.96 725.55,-22.42 1132.61,-9.96 -57.18,-98 -35.16,-32.94 -41.41,-146.13 -58.36,61.63 -3.51,1.13 -49.12,59.74 -17.64,22.68 9.46,-2.45 -30.5,41.57l-199.35 -21.47c22.17,-104.32 -4.92,-226.72 -69.44,-307.65 -115.46,76.79 -525.78,295.39 -601.42,112.19z"/>
   <path class="fil14" d="M14683.38 7832.86l-125.7 57.14 -5.44 51.14c307.49,-72.48 392.26,-175.16 941.93,-110.76 176.91,20.73 184.67,65.01 273.02,126.7 241.54,168.63 230.18,403.87 196.15,452.43 -95.95,64.39 -90.63,37.43 -204.14,48.56 -151.64,14.87 -182.12,141.82 -713.4,59.06 -262.44,-40.88 -617.46,-150.94 -600.89,-468.49 -34.89,91.36 -6.86,24.99 -52.35,56.08l-38.51 -9.86 26.55 82.86 16.14 56.81c222.88,194.78 260.57,299.42 732.05,351.5 150.38,16.61 353.35,33.83 491.41,-23.03 215.72,-88.85 257.14,9.56 402.17,-148.2 42.19,-234.4 -66.39,-396.66 -241.95,-525.67 -262.69,-193.03 -397.28,-64.58 -629.17,-139.96 -3.88,-158.59 49.51,-361.65 -29.73,-501.37 8.37,176.56 49.9,335.68 -21.71,503.78 -81.32,59.91 -296.68,64.03 -416.43,81.28z"/>
   <path class="fil15" d="M25257.24 14926.88l54.37 56.81 0 -3872.32 -31.49 8.11c-51.36,90.72 -6.42,195.84 -22.27,416.36 -10.65,148.18 -2.23,325.59 -2.23,476.92l1.62 2914.12z"/>
   <path class="fil16" d="M10298.48 10226.11c-86.11,-195.85 -6.18,-250.81 126.91,-397.98 79.91,-88.38 196.23,-228.82 305.65,-271.04 79.4,57.51 363.73,334.96 397.16,417.67 -608.71,0.6 -591.81,176.24 -829.72,251.35zm-22.3 93.21l58.2 -42.64c129.71,-49.45 240.22,-154.88 414.44,-203.85 331.42,-93.17 329.33,10.69 563.53,54.14l37.46 -14.96c-36.33,-78 -536.09,-599.88 -618.77,-643.16 -135.59,54.33 -307.99,255.02 -401.75,369.32 -127.24,155.11 -222.03,325.15 -53.11,481.15z"/>
   <path class="fil14" d="M7857.34 7614.54c71.07,107 144.84,129.16 116.28,292.84 -42.82,245.3 -313.24,187.5 -403.7,207.73 -36.25,8.11 -81.33,33.25 -133.21,45.74 -404.62,97.41 -371.58,-46.61 -454.8,-125.85 -59.9,-57.03 -68.81,-37.75 -119.17,-119.78 -3.62,-222.31 199.72,-299.82 387,-361.38 106.37,-34.96 195.87,-57 302.55,-8.67 123.53,55.96 130.8,48.48 311.08,80.1 -138.24,-161.51 -247.67,3.97 -302.73,-163.84l-26.45 -44.77c-60.32,123.49 -247.7,-23.69 -600.63,216.53 -86.46,58.85 -144.06,163.75 -124.46,276.83 11.52,66.46 39.19,92.53 86.33,132.3 106.12,89.54 29.32,16.16 97.68,116.21 128.45,188.02 496.11,18.1 668.33,5.54 480.02,-35 271.32,-243.79 418.74,-414.24 -81.69,-1.7 -52.64,6.91 -104.06,-42.93 21.33,-63.15 -52.71,1.75 64.87,-87.75l-107.41 -6.4c-32.68,-122.77 -26.75,-107.23 20.88,-219.83l-48.82 40.07c-39.61,112.23 -6.46,117.01 -48.3,181.55z"/>
   <path class="fil17" d="M11312.35 10126.97l96.48 112.84c-71.3,201.84 -284.76,488.09 -518.95,503.67 -227.95,15.17 -544.78,-259.5 -555.5,-466.8l-58.2 42.64c86.24,247.46 372.67,528.32 663.97,477.17 220.67,-38.74 505.55,-363.81 532.38,-583.15l-122.72 -101.33 -37.46 14.96z"/>
   <path class="fil18" d="M14751.11 7123.42c-357.44,110 -205.69,489.97 105.97,283.11 28.92,-138.92 -4.75,-199.55 -105.97,-283.11z"/>
   <path class="fil19" d="M10515.87 8018.24c52.94,77.02 173.61,137.67 268.1,170.55 78.97,-38.73 170.9,-98.17 214.97,-167.04 -108.87,-112.74 -392.65,-136.51 -483.07,-3.51z"/>
   <path class="fil20" d="M14396.74 8234.53l-16.14 -56.81c-160.66,-45 -934.28,-190.36 -1041.93,-134.26 72.99,76.59 399.67,79.93 526.57,95.73 173.86,21.64 377.94,82.09 531.5,95.34z"/>
   <path class="fil18" d="M7737.56 7066.07c151.78,84.01 294.84,-139.16 286.38,-285.23 -175.67,-29.06 -353.22,98.65 -286.38,285.23z"/>
   <path class="fil18" d="M7954.46 7392.92c-47.63,112.6 -53.56,97.06 -20.88,219.83l107.41 6.4 180.56 -141.03 -26.07 -129.28c-105.12,-26.9 -150.65,-8.81 -241.02,44.08z"/>
   <path class="fil18" d="M14041.07 7673.12c-1.19,133.27 16.17,233.43 156.81,259.7 102.88,-89.35 89.57,-99.72 80.41,-233.23 -87.07,-67.74 -31.85,-64.86 -166.24,-97.61l-70.98 71.14z"/>
   <path class="fil12" d="M7560.64 7461.43c55.06,167.81 164.49,2.33 302.73,163.84l-6.03 -10.73c41.84,-64.54 8.69,-69.32 48.3,-181.55 -40.29,-47.81 -75.87,-99.12 -138.34,-139.15 -71.13,44.24 -52.05,48.65 -115.06,108.91 -115.51,110.47 -32.54,64.9 -91.6,58.68z"/>
   <path class="fil7" d="M8207.14 7831.76c104.94,58.23 314.66,6.06 433.41,-1.33 113.58,-7.06 360.72,19.45 441.46,-25.13 -93.71,-79.28 -759.21,-39.47 -874.87,26.46z"/>
   <path class="fil21" d="M9080.72 6329.05c102.05,36.33 -1.68,-22.03 97.97,77.44l-0.59 -69.09 180.1 -64.54c-25.71,-21.92 14.63,-26.67 -55.93,-27.94 -13.24,-0.24 -69.45,12.76 -85.44,17.12 -83.48,22.78 -77.5,17.85 -136.11,67.01z"/>
   <path class="fil22" d="M12145.16 13957.93l15.93 -143.94 -128.77 -5.1c9.98,111.02 21.4,109.88 112.84,149.04z"/>
   <path class="fil23" d="M14392.56 8104.72c45.49,-31.09 17.46,35.28 52.35,-56.08l107.33 -107.5 5.44 -51.14c-110.82,62.45 -152.58,88.31 -165.12,214.72z"/>
   <path class="fil24" d="M7541.93 6901.88c54.75,-50.49 78.7,-97.8 17.21,-155.87l113.35 -54.78 -144.71 20.94c-23.63,68.65 -49.31,7.85 36.51,86.39l-22.36 103.32z"/>
  </g>
 </g>
</svg>
